<svg width="40" height="44" viewBox="0 0 40 44" fill="none" xmlns="http://www.w3.org/2000/svg">
<path fill-rule="evenodd" clip-rule="evenodd" d="M0 21.879C0 21.0501 0.263363 20.2553 0.732152 19.6692C1.20094 19.0832 1.83675 18.754 2.49972 18.754H31.4615L20.7277 5.34145C20.2583 4.75466 19.9946 3.9588 19.9946 3.12895C19.9946 2.2991 20.2583 1.50324 20.7277 0.916448C21.1971 0.329657 21.8337 0 22.4975 0C23.1613 0 23.7979 0.329657 24.2673 0.916448L39.2656 19.6665C39.4984 19.9567 39.6831 20.3016 39.8091 20.6812C39.9351 21.0609 40 21.4679 40 21.879C40 22.29 39.9351 22.697 39.8091 23.0767C39.6831 23.4563 39.4984 23.8012 39.2656 24.0915L24.2673 42.8415C23.7979 43.4282 23.1613 43.7579 22.4975 43.7579C21.8337 43.7579 21.1971 43.4282 20.7277 42.8415C20.2583 42.2547 19.9946 41.4588 19.9946 40.629C19.9946 39.7991 20.2583 39.0032 20.7277 38.4165L31.4615 25.004H2.49972C1.83675 25.004 1.20094 24.6747 0.732152 24.0887C0.263363 23.5026 0 22.7078 0 21.879Z" fill="#990BA6"/>
</svg>
